<svg width="51" height="24" viewBox="0 0 51 24" fill="none" xmlns="http://www.w3.org/2000/svg">
<path d="M0 2C0 0.89543 0.895431 0 2 0H49C50.1046 0 51 0.895431 51 2V22C51 23.1046 50.1046 24 49 24H2C0.89543 24 0 23.1046 0 22V2Z" fill="#1A1D19"/>
<path d="M5.984 7.24H6.596V14.764C6.596 15.052 6.656 15.252 6.776 15.364C6.896 15.468 7.052 15.52 7.244 15.52C7.372 15.52 7.504 15.508 7.64 15.484C7.776 15.46 7.896 15.428 8 15.388L8.12 15.88C7.984 15.928 7.816 15.972 7.616 16.012C7.416 16.052 7.244 16.072 7.1 16.072C6.764 16.072 6.492 15.972 6.284 15.772C6.084 15.564 5.984 15.288 5.984 14.944V7.24Z" fill="#ECEEEC"/>
<path d="M8.52547 14.2C8.52547 13.824 8.63747 13.5 8.86147 13.228C9.08547 12.948 9.39347 12.732 9.78547 12.58C10.1775 12.42 10.6295 12.34 11.1415 12.34C11.4615 12.34 11.7935 12.368 12.1375 12.424C12.4815 12.48 12.7895 12.556 13.0615 12.652V12.064C13.0615 11.488 12.8935 11.028 12.5575 10.684C12.2295 10.34 11.7735 10.168 11.1895 10.168C10.8775 10.168 10.5535 10.232 10.2175 10.36C9.88147 10.488 9.53747 10.672 9.18547 10.912L8.93347 10.48C9.34147 10.208 9.73347 10.004 10.1095 9.868C10.4935 9.724 10.8735 9.652 11.2495 9.652C11.9935 9.652 12.5815 9.872 13.0135 10.312C13.4455 10.752 13.6615 11.352 13.6615 12.112V15.208C13.6615 15.304 13.6815 15.376 13.7215 15.424C13.7695 15.472 13.8375 15.5 13.9255 15.508V16C13.8535 16.008 13.7935 16.012 13.7455 16.012C13.6975 16.012 13.6575 16.012 13.6255 16.012C13.4735 15.988 13.3535 15.924 13.2655 15.82C13.1855 15.716 13.1415 15.6 13.1335 15.472V14.98C12.8455 15.34 12.4735 15.62 12.0175 15.82C11.5695 16.02 11.0975 16.12 10.6015 16.12C10.2095 16.12 9.85347 16.036 9.53347 15.868C9.22147 15.7 8.97347 15.472 8.78947 15.184C8.61347 14.888 8.52547 14.56 8.52547 14.2ZM12.8215 14.716C12.9015 14.612 12.9615 14.512 13.0015 14.416C13.0415 14.32 13.0615 14.232 13.0615 14.152V13.12C12.7735 13.008 12.4735 12.924 12.1615 12.868C11.8495 12.812 11.5295 12.784 11.2015 12.784C10.5775 12.784 10.0695 12.908 9.67747 13.156C9.29347 13.404 9.10147 13.74 9.10147 14.164C9.10147 14.428 9.16947 14.672 9.30547 14.896C9.44147 15.12 9.62947 15.3 9.86947 15.436C10.1175 15.572 10.4015 15.64 10.7215 15.64C11.1695 15.64 11.5815 15.556 11.9575 15.388C12.3415 15.212 12.6295 14.988 12.8215 14.716Z" fill="#ECEEEC"/>
<path d="M18.4028 16.12C17.9148 16.12 17.4588 15.992 17.0348 15.736C16.6108 15.472 16.2788 15.144 16.0388 14.752V16H15.4868V7.24H16.0868V11.116C16.3828 10.684 16.7308 10.332 17.1308 10.06C17.5388 9.788 18.0068 9.652 18.5348 9.652C18.9828 9.652 19.3788 9.744 19.7228 9.928C20.0748 10.112 20.3748 10.36 20.6228 10.672C20.8708 10.984 21.0588 11.332 21.1868 11.716C21.3228 12.1 21.3908 12.496 21.3908 12.904C21.3908 13.328 21.3148 13.736 21.1628 14.128C21.0108 14.512 20.7988 14.856 20.5268 15.16C20.2548 15.456 19.9388 15.692 19.5788 15.868C19.2188 16.036 18.8268 16.12 18.4028 16.12ZM18.2828 15.58C18.6508 15.58 18.9868 15.508 19.2908 15.364C19.5948 15.212 19.8548 15.008 20.0708 14.752C20.2948 14.496 20.4668 14.208 20.5868 13.888C20.7148 13.568 20.7788 13.24 20.7788 12.904C20.7788 12.432 20.6788 11.992 20.4788 11.584C20.2788 11.168 19.9988 10.832 19.6388 10.576C19.2788 10.32 18.8628 10.192 18.3908 10.192C18.0388 10.192 17.7148 10.272 17.4188 10.432C17.1228 10.584 16.8628 10.784 16.6388 11.032C16.4228 11.28 16.2388 11.552 16.0868 11.848V13.912C16.1188 14.144 16.2068 14.364 16.3508 14.572C16.4948 14.772 16.6748 14.948 16.8908 15.1C17.1148 15.244 17.3468 15.36 17.5868 15.448C17.8348 15.536 18.0668 15.58 18.2828 15.58Z" fill="#ECEEEC"/>
<path d="M22.3664 11.68C22.3664 11.16 22.4544 10.652 22.6304 10.156C22.8144 9.652 23.0784 9.196 23.4224 8.788C23.7744 8.372 24.2024 8.044 24.7064 7.804C25.2104 7.556 25.7824 7.432 26.4224 7.432C27.1824 7.432 27.8344 7.608 28.3784 7.96C28.9224 8.304 29.3264 8.748 29.5904 9.292L28.7384 9.844C28.5704 9.484 28.3544 9.2 28.0904 8.992C27.8344 8.776 27.5544 8.624 27.2504 8.536C26.9544 8.448 26.6624 8.404 26.3744 8.404C25.9024 8.404 25.4824 8.5 25.1144 8.692C24.7544 8.884 24.4504 9.14 24.2024 9.46C23.9544 9.78 23.7664 10.14 23.6384 10.54C23.5184 10.932 23.4584 11.328 23.4584 11.728C23.4584 12.168 23.5304 12.592 23.6744 13C23.8264 13.408 24.0344 13.768 24.2984 14.08C24.5624 14.392 24.8744 14.64 25.2344 14.824C25.5944 15.008 25.9864 15.1 26.4104 15.1C26.7064 15.1 27.0104 15.048 27.3224 14.944C27.6344 14.84 27.9264 14.68 28.1984 14.464C28.4704 14.24 28.6864 13.952 28.8464 13.6L29.7464 14.092C29.5704 14.516 29.2984 14.876 28.9304 15.172C28.5624 15.468 28.1504 15.692 27.6944 15.844C27.2464 15.996 26.8024 16.072 26.3624 16.072C25.7784 16.072 25.2424 15.948 24.7544 15.7C24.2664 15.444 23.8424 15.108 23.4824 14.692C23.1304 14.268 22.8544 13.796 22.6544 13.276C22.4624 12.748 22.3664 12.216 22.3664 11.68Z" fill="#ECEEEC"/>
<path d="M33.5729 7.48H34.4849L37.9649 16H36.8129L35.8049 13.504H32.2289L31.2329 16H30.0809L33.5729 7.48ZM35.5649 12.664L34.0289 8.728L32.4449 12.664H35.5649Z" fill="#ECEEEC"/>
<path d="M39.102 16V7.48H42.75C43.126 7.48 43.47 7.56 43.782 7.72C44.094 7.872 44.366 8.08 44.598 8.344C44.83 8.6 45.01 8.892 45.138 9.22C45.266 9.54 45.33 9.868 45.33 10.204C45.33 10.596 45.254 10.968 45.102 11.32C44.958 11.672 44.75 11.972 44.478 12.22C44.214 12.468 43.902 12.64 43.542 12.736L45.606 16H44.382L42.438 12.94H40.182V16H39.102ZM40.182 11.98H42.762C43.058 11.98 43.314 11.9 43.53 11.74C43.754 11.572 43.926 11.352 44.046 11.08C44.174 10.808 44.238 10.516 44.238 10.204C44.238 9.884 44.166 9.592 44.022 9.328C43.878 9.056 43.69 8.84 43.458 8.68C43.226 8.52 42.97 8.44 42.69 8.44H40.182V11.98Z" fill="#ECEEEC"/>
</svg>
